<?xml version="1.0" encoding="utf-8"?>
<!-- Generator: Adobe Illustrator 19.1.0, SVG Export Plug-In . SVG Version: 6.00 Build 0)  -->
<!DOCTYPE svg PUBLIC "-//W3C//DTD SVG 1.1//EN" "http://www.w3.org/Graphics/SVG/1.1/DTD/svg11.dtd">
<svg version="1.1" id="Layer_1" xmlns="http://www.w3.org/2000/svg" xmlns:xlink="http://www.w3.org/1999/xlink" x="0px" y="0px"
	 viewBox="0 0 354.5 50" style="enable-background:new 0 0 354.5 50;" xml:space="preserve">
<style type="text/css">
	.st0{fill:#F05514;}
	.st1{fill-rule:evenodd;clip-rule:evenodd;fill:#F05514;}
</style>
<polygon class="st0" points="197.2,42.3 191.3,18.8 191.3,18.8 185.5,42.3 177.8,42.3 168.6,7.7 176.2,7.7 181.7,31.3 181.8,31.3 
	187.8,7.7 194.9,7.7 200.8,31.6 200.9,31.6 206.6,7.7 214,7.7 204.8,42.3 "/>
<g>
	<path class="st0" d="M220.1,36.3c1,1,2.5,1.5,4.5,1.5c1.4,0,2.6-0.3,3.6-1c1-0.7,1.6-1.4,1.8-2.2h6.1c-1,3-2.5,5.1-4.5,6.4
		c-2,1.3-4.4,1.9-7.3,1.9c-2,0-3.7-0.3-5.3-0.9c-1.6-0.6-2.9-1.5-4-2.7c-1.1-1.2-1.9-2.6-2.5-4.2c-0.6-1.6-0.9-3.4-0.9-5.3
		c0-1.9,0.3-3.6,0.9-5.2c0.6-1.6,1.5-3,2.6-4.2c1.1-1.2,2.5-2.1,4-2.8c1.6-0.7,3.3-1,5.2-1c2.1,0,4,0.4,5.6,1.2
		c1.6,0.8,2.9,1.9,3.9,3.3c1,1.4,1.7,3,2.2,4.7c0.5,1.8,0.6,3.6,0.5,5.6h-18.1C218.5,33.7,219,35.3,220.1,36.3 M227.8,23.1
		c-0.8-0.9-2.1-1.4-3.8-1.4c-1.1,0-2,0.2-2.7,0.6c-0.7,0.4-1.3,0.8-1.7,1.4c-0.4,0.6-0.7,1.1-0.9,1.7c-0.2,0.6-0.3,1.2-0.3,1.6h11.2
		C229.2,25.4,228.6,24,227.8,23.1"/>
	<path class="st0" d="M240.4,20.6c0.7-1.1,1.6-1.9,2.7-2.6c1.1-0.6,2.3-1.1,3.7-1.4c1.4-0.3,2.8-0.4,4.1-0.4c1.3,0,2.5,0.1,3.8,0.3
		c1.3,0.2,2.5,0.5,3.5,1c1.1,0.5,1.9,1.2,2.6,2.2c0.7,0.9,1,2.1,1,3.7v13c0,1.1,0.1,2.2,0.2,3.2c0.1,1,0.4,1.8,0.7,2.3h-7
		c-0.1-0.4-0.2-0.8-0.3-1.2c-0.1-0.4-0.1-0.8-0.2-1.2c-1.1,1.1-2.4,1.9-3.9,2.4c-1.5,0.4-3,0.7-4.5,0.7c-1.2,0-2.3-0.1-3.3-0.4
		c-1-0.3-1.9-0.7-2.7-1.4c-0.8-0.6-1.4-1.4-1.8-2.3c-0.4-0.9-0.7-2.1-0.7-3.3c0-1.4,0.2-2.6,0.8-3.5c0.5-0.9,1.1-1.7,1.9-2.2
		c0.8-0.5,1.7-1,2.7-1.2c1-0.3,2-0.5,3.1-0.7c1-0.2,2-0.3,3-0.4c1-0.1,1.9-0.2,2.7-0.4c0.8-0.2,1.4-0.5,1.8-0.8
		c0.4-0.4,0.7-0.9,0.6-1.6c0-0.7-0.1-1.3-0.4-1.8c-0.2-0.4-0.6-0.8-1-1c-0.4-0.2-0.9-0.4-1.4-0.5c-0.5-0.1-1.1-0.1-1.7-0.1
		c-1.4,0-2.4,0.3-3.2,0.9c-0.8,0.6-1.2,1.5-1.4,2.9h-6.9C239.3,23,239.7,21.7,240.4,20.6 M254,30.3c-0.4,0.1-0.9,0.3-1.4,0.4
		c-0.5,0.1-1,0.2-1.6,0.2c-0.5,0.1-1.1,0.1-1.6,0.2c-0.5,0.1-1,0.2-1.5,0.4c-0.5,0.2-0.9,0.4-1.3,0.7c-0.4,0.3-0.7,0.6-0.9,1
		c-0.2,0.4-0.3,1-0.3,1.6c0,0.6,0.1,1.1,0.3,1.5c0.2,0.4,0.5,0.7,0.9,1c0.4,0.2,0.8,0.4,1.4,0.5c0.5,0.1,1,0.1,1.6,0.1
		c1.4,0,2.4-0.2,3.1-0.7c0.7-0.5,1.3-1,1.6-1.6c0.4-0.6,0.6-1.3,0.6-1.9c0.1-0.6,0.1-1.2,0.1-1.5v-2.6C254.8,30,254.4,30.2,254,30.3
		"/>
	<path class="st0" d="M280,17.3v4.6h-5v12.4c0,1.2,0.2,1.9,0.6,2.3c0.4,0.4,1.2,0.6,2.3,0.6c0.4,0,0.8,0,1.1-0.1
		c0.4,0,0.7-0.1,1-0.1v5.3c-0.6,0.1-1.2,0.2-1.9,0.2c-0.7,0-1.4,0-2.1,0c-1.1,0-2.1-0.1-3-0.2c-1-0.1-1.8-0.4-2.5-0.8
		c-0.7-0.4-1.3-1-1.7-1.8c-0.4-0.8-0.6-1.8-0.6-3.1V21.9H264v-4.6h4.2V9.8h6.9v7.5H280z"/>
	<path class="st0" d="M290.6,7.7v13h0.1c0.9-1.5,2-2.5,3.3-3.2c1.4-0.7,2.7-1,4-1c1.8,0,3.4,0.3,4.5,0.8c1.2,0.5,2.1,1.2,2.8,2.1
		c0.7,0.9,1.2,2,1.4,3.2c0.3,1.3,0.4,2.7,0.4,4.2v15.4h-6.9V28.2c0-2.1-0.3-3.6-1-4.6c-0.6-1-1.8-1.5-3.4-1.5
		c-1.9,0-3.2,0.6-4.1,1.7c-0.8,1.1-1.3,2.9-1.3,5.5v13.1H284V7.7H290.6z"/>
	<path class="st0" d="M318.1,36.3c1,1,2.5,1.5,4.5,1.5c1.4,0,2.6-0.3,3.6-1c1-0.7,1.6-1.4,1.8-2.2h6c-1,3-2.5,5.1-4.5,6.4
		c-2,1.3-4.4,1.9-7.3,1.9c-2,0-3.7-0.3-5.3-0.9c-1.6-0.6-2.9-1.5-4-2.7c-1.1-1.2-1.9-2.6-2.5-4.2c-0.6-1.6-0.9-3.4-0.9-5.3
		c0-1.9,0.3-3.6,0.9-5.2c0.6-1.6,1.5-3,2.6-4.2c1.1-1.2,2.5-2.1,4-2.8c1.6-0.7,3.3-1,5.2-1c2.1,0,4,0.4,5.6,1.2
		c1.6,0.8,2.9,1.9,3.9,3.3c1,1.4,1.8,3,2.2,4.7c0.5,1.8,0.6,3.6,0.5,5.6h-18.1C316.5,33.7,317,35.3,318.1,36.3 M325.8,23.1
		c-0.8-0.9-2.1-1.4-3.8-1.4c-1.1,0-2,0.2-2.7,0.6c-0.7,0.4-1.3,0.8-1.7,1.4c-0.4,0.6-0.7,1.1-0.9,1.7c-0.2,0.6-0.3,1.2-0.3,1.6h11.2
		C327.2,25.4,326.7,24,325.8,23.1"/>
	<path class="st0" d="M343.3,17.3v4.6h0.1c0.3-0.8,0.8-1.5,1.3-2.2c0.5-0.7,1.2-1.2,1.9-1.7c0.7-0.5,1.5-0.8,2.3-1.1
		c0.8-0.3,1.6-0.4,2.5-0.4c0.5,0,1,0.1,1.5,0.2v6.4c-0.3-0.1-0.7-0.1-1.2-0.2c-0.5,0-0.9-0.1-1.3-0.1c-1.3,0-2.3,0.2-3.2,0.6
		c-0.9,0.4-1.6,1-2.1,1.7c-0.5,0.7-0.9,1.6-1.1,2.5c-0.2,1-0.3,2-0.3,3.1v11.3h-6.9v-25H343.3z"/>
	<path class="st0" d="M103.8,21.4c-1.1,0-2,0.3-2.8,0.8c-0.7,0.5-1.4,1.1-1.8,1.9c-0.5,0.8-0.8,1.7-1,2.6c-0.2,1-0.3,1.9-0.3,2.8
		c0,0.9,0.1,1.8,0.3,2.8c0.2,0.9,0.5,1.8,0.9,2.5c0.4,0.8,1,1.4,1.8,1.9c0.7,0.5,1.6,0.7,2.7,0.7c1.6,0,2.9-0.5,3.8-1.4
		c0.9-0.9,1.4-2.2,1.7-3.7h6.6c-0.5,3.3-1.7,5.9-3.9,7.6c-2.1,1.7-4.9,2.6-8.2,2.6c-1.9,0-3.6-0.3-5.2-0.9c-1.6-0.6-2.9-1.5-4-2.6
		c-1.1-1.1-2-2.5-2.6-4c-0.6-1.6-0.9-3.3-0.9-5.2c0-1.9,0.3-3.7,0.8-5.4c0.6-1.7,1.4-3.1,2.5-4.3c1.1-1.2,2.4-2.2,4-2.8
		c1.6-0.7,3.4-1,5.4-1c1.5,0,2.9,0.2,4.3,0.6c1.4,0.4,2.6,1,3.7,1.8c1.1,0.8,2,1.8,2.6,3c0.7,1.2,1.1,2.6,1.2,4.2h-6.7
		C108.4,22.9,106.8,21.4,103.8,21.4"/>
	<path class="st0" d="M131,21.4c-1.1,0-2,0.3-2.8,0.8c-0.8,0.5-1.4,1.1-1.8,1.9c-0.5,0.8-0.8,1.7-1,2.6c-0.2,1-0.3,1.9-0.3,2.8
		c0,0.9,0.1,1.8,0.3,2.8c0.2,0.9,0.5,1.8,0.9,2.5c0.4,0.8,1,1.4,1.8,1.9c0.8,0.5,1.6,0.7,2.7,0.7c1.6,0,2.9-0.5,3.8-1.4
		c0.9-0.9,1.4-2.2,1.7-3.7h6.6c-0.5,3.3-1.7,5.9-3.9,7.6c-2.1,1.7-4.9,2.6-8.2,2.6c-1.9,0-3.6-0.3-5.2-0.9c-1.6-0.6-2.9-1.5-4-2.6
		c-1.1-1.1-2-2.5-2.6-4c-0.6-1.6-0.9-3.3-0.9-5.2c0-1.9,0.3-3.7,0.8-5.4c0.6-1.7,1.4-3.1,2.5-4.3c1.1-1.2,2.4-2.2,4-2.8
		c1.6-0.7,3.4-1,5.4-1c1.5,0,2.9,0.2,4.3,0.6c1.4,0.4,2.6,1,3.7,1.8c1.1,0.8,2,1.8,2.6,3c0.7,1.2,1.1,2.6,1.2,4.2h-6.7
		C135.7,22.9,134,21.4,131,21.4"/>
	<path class="st0" d="M78.5,7.7h-7.8L57.7,42.3H65l2.8-7.7h13.3l2.8,7.7h7.5L78.5,7.7z M69.9,28.9l4.7-12.7l4.6,12.7H69.9z"/>
	<path class="st0" d="M161.4,16.9v13.1c0,2.5-0.4,4.4-1.2,5.5c-0.8,1.1-2.1,1.7-3.9,1.7c-1.6,0-2.7-0.5-3.3-1.5
		c-0.6-1-0.9-2.6-0.9-4.6V16.9h-6.6v15.4c0,1.6,0.1,3,0.4,4.2c0.3,1.3,0.7,2.4,1.4,3.2c0.6,0.9,1.5,1.6,2.7,2.1
		c1.1,0.5,2.6,0.7,4.3,0.7c1.4,0,2.7-0.3,4.1-1c1.2-0.6,2.3-1.6,3.1-2.9V42h6.5V16.9v0H161.4z"/>
	<path class="st1" d="M14.7,14.2c6-6,15.8-6,21.9,0c6,6,6,15.8,0,21.9c-6,6-15.8,6-21.9,0C8.7,30,8.7,20.2,14.7,14.2 M25.7,7.7
		C16.1,7.7,8.3,15.5,8.3,25c0,9.6,7.8,17.3,17.3,17.3C35.2,42.4,43,34.6,43,25C43,15.5,35.2,7.7,25.7,7.7 M47.3,12.4l-7.5-1.6
		l-1.7-7.5l-7.3,2.4L25.6,0l-5.2,5.7l-7.3-2.3l-1.6,7.5L4,12.6l2.4,7.3l-5.7,5.2l5.7,5.2l-2.3,7.3l7.5,1.6l1.7,7.5l7.3-2.3l5.2,5.7
		l5.2-5.7l7.3,2.3l1.6-7.5l7.5-1.7L45,30.1l5.7-5.2L45,19.8L47.3,12.4z"/>
</g>
</svg>
