<?xml version="1.0" encoding="utf-8"?>
<!-- Generator: Adobe Illustrator 18.1.1, SVG Export Plug-In . SVG Version: 6.00 Build 0)  -->
<!DOCTYPE svg PUBLIC "-//W3C//DTD SVG 1.1//EN" "http://www.w3.org/Graphics/SVG/1.1/DTD/svg11.dtd">
<svg version="1.1" id="Layer_1" xmlns="http://www.w3.org/2000/svg" xmlns:xlink="http://www.w3.org/1999/xlink" x="0px" y="0px"
	 viewBox="0 0 128 128" enable-background="new 0 0 128 128" xml:space="preserve">
<g enable-background="new    ">
	<g>
		<defs>
			<rect id="SVGID_1_" x="2" y="8.6" width="104" height="99.3"/>
		</defs>
		<clipPath id="SVGID_2_">
			<use xlink:href="#SVGID_1_"  overflow="visible"/>
		</clipPath>
		<g clip-path="url(#SVGID_2_)">
			<defs>
				<rect id="SVGID_3_" x="-94.1" y="-883.3" width="2152.5" height="8234.9"/>
			</defs>
			<clipPath id="SVGID_4_">
				<use xlink:href="#SVGID_3_"  overflow="visible"/>
			</clipPath>
			<g clip-path="url(#SVGID_4_)">
				<defs>
					<path id="SVGID_5_" d="M93.1,94.3c-16.4,16.7-43.2,17-59.9,0.6c-16.7-16.4-17-43.2-0.6-59.9C49,18.3,75.8,18,92.5,34.4
						C109.2,50.8,109.5,77.6,93.1,94.3"/>
				</defs>
				<clipPath id="SVGID_6_">
					<use xlink:href="#SVGID_5_"  overflow="visible"/>
				</clipPath>
				<g clip-path="url(#SVGID_6_)">
					<defs>
						<rect id="SVGID_7_" x="2" y="8.6" width="104" height="99.3"/>
					</defs>
					<clipPath id="SVGID_8_">
						<use xlink:href="#SVGID_7_"  overflow="visible"/>
					</clipPath>
					<rect x="12.6" y="14.4" clip-path="url(#SVGID_8_)" fill="#FFDE44" width="100.5" height="100.5"/>
				</g>
			</g>
		</g>
		<g clip-path="url(#SVGID_2_)">
			<defs>
				<rect id="SVGID_9_" x="-94.1" y="-883.3" width="2152.5" height="8234.9"/>
			</defs>
			<clipPath id="SVGID_10_">
				<use xlink:href="#SVGID_9_"  overflow="visible"/>
			</clipPath>
			<g clip-path="url(#SVGID_10_)">
				<defs>
					<polyline id="SVGID_11_" points="38.2,120.4 34.2,116.4 81.7,68.9 64.8,52 20.7,96.1 16.6,92 43.7,65 3.6,24.9 7.6,20.8 
						47.7,60.9 60.7,47.9 38.4,25.6 42.5,21.5 64.8,43.8 93.1,15.6 97.1,19.7 68.9,47.9 85.8,64.8 114.7,35.8 118.8,39.9 89.8,68.9 
						107.1,86.1 103,90.2 85.8,72.9 38.3,120.4 38.2,120.4 					"/>
				</defs>
				<clipPath id="SVGID_12_">
					<use xlink:href="#SVGID_11_"  overflow="visible"/>
				</clipPath>
				<g clip-path="url(#SVGID_12_)">
					<defs>
						<rect id="SVGID_13_" x="2" y="8.6" width="104" height="99.3"/>
					</defs>
					<clipPath id="SVGID_14_">
						<use xlink:href="#SVGID_13_"  overflow="visible"/>
					</clipPath>
					<g clip-path="url(#SVGID_14_)" enable-background="new    ">
						<g>
							<defs>
								<rect id="SVGID_15_" x="16.2" y="16.5" width="89.8" height="91.4"/>
							</defs>
							<clipPath id="SVGID_16_">
								<use xlink:href="#SVGID_15_"  overflow="visible"/>
							</clipPath>
							<g clip-path="url(#SVGID_16_)">
								<defs>
									<path id="SVGID_17_" d="M93.2,94.3c-16.4,16.7-43.2,17-59.9,0.6c-16.7-16.4-17-43.2-0.6-59.9c16.4-16.7,43.2-17,59.9-0.6
										C109.3,50.7,109.6,77.6,93.2,94.3"/>
								</defs>
								<clipPath id="SVGID_18_">
									<use xlink:href="#SVGID_17_"  overflow="visible"/>
								</clipPath>
								<g clip-path="url(#SVGID_18_)">
									<defs>
										<rect id="SVGID_19_" x="3.6" y="14.9" width="102.4" height="93"/>
									</defs>
									<clipPath id="SVGID_20_">
										<use xlink:href="#SVGID_19_"  overflow="visible"/>
									</clipPath>
									<rect x="12.7" y="14.4" clip-path="url(#SVGID_20_)" fill="#EFEFEF" width="100.5" height="100.5"/>
								</g>
							</g>
						</g>
					</g>
				</g>
			</g>
		</g>
		<g clip-path="url(#SVGID_2_)">
			<defs>
				<rect id="SVGID_21_" x="-94.1" y="-883.3" width="2152.5" height="8234.9"/>
			</defs>
			<clipPath id="SVGID_22_">
				<use xlink:href="#SVGID_21_"  overflow="visible"/>
			</clipPath>
			<g clip-path="url(#SVGID_22_)">
				<defs>
					<polyline id="SVGID_23_" points="40.8,19.9 64.8,43.9 85.9,22.7 40.8,19.9 					"/>
				</defs>
				<clipPath id="SVGID_24_">
					<use xlink:href="#SVGID_23_"  overflow="visible"/>
				</clipPath>
				<g clip-path="url(#SVGID_24_)">
					<defs>
						<rect id="SVGID_25_" x="2" y="8.6" width="104" height="99.3"/>
					</defs>
					<clipPath id="SVGID_26_">
						<use xlink:href="#SVGID_25_"  overflow="visible"/>
					</clipPath>
					<g clip-path="url(#SVGID_26_)" enable-background="new    ">
						<g>
							<defs>
								<rect id="SVGID_27_" x="39.8" y="19.7" width="47.3" height="25.2"/>
							</defs>
							<clipPath id="SVGID_28_">
								<use xlink:href="#SVGID_27_"  overflow="visible"/>
							</clipPath>
							<g clip-path="url(#SVGID_28_)">
								<defs>
									<path id="SVGID_29_" d="M93.6,94.3c-16.4,16.7-43.2,17-59.9,0.6C17,78.5,16.7,51.7,33.1,35C49.5,18.3,76.3,18,93,34.4
										C109.7,50.8,110,77.6,93.6,94.3"/>
								</defs>
								<clipPath id="SVGID_30_">
									<use xlink:href="#SVGID_29_"  overflow="visible"/>
								</clipPath>
								<g clip-path="url(#SVGID_30_)">
									<defs>
										<rect id="SVGID_31_" x="39.8" y="19.7" width="47.3" height="25.2"/>
									</defs>
									<clipPath id="SVGID_32_">
										<use xlink:href="#SVGID_31_"  overflow="visible"/>
									</clipPath>
									<rect x="13.1" y="14.4" clip-path="url(#SVGID_32_)" fill="#3F8CF4" width="100.5" height="100.5"/>
								</g>
							</g>
						</g>
					</g>
				</g>
			</g>
		</g>
		<g clip-path="url(#SVGID_2_)">
			<defs>
				<rect id="SVGID_33_" x="-94.1" y="-883.3" width="2152.5" height="8234.9"/>
			</defs>
			<clipPath id="SVGID_34_">
				<use xlink:href="#SVGID_33_"  overflow="visible"/>
			</clipPath>
			<g clip-path="url(#SVGID_34_)">
				<defs>
					<path id="SVGID_35_" d="M85.7,72.9L51.6,107l18.9,3.5c0,0,27.4-9.4,27.6-9.6c0.2-0.3,1.1-14.5,1.1-14.5L85.7,72.9"/>
				</defs>
				<clipPath id="SVGID_36_">
					<use xlink:href="#SVGID_35_"  overflow="visible"/>
				</clipPath>
				<g clip-path="url(#SVGID_36_)">
					<defs>
						<rect id="SVGID_37_" x="2" y="8.6" width="104" height="99.3"/>
					</defs>
					<clipPath id="SVGID_38_">
						<use xlink:href="#SVGID_37_"  overflow="visible"/>
					</clipPath>
					<g clip-path="url(#SVGID_38_)" enable-background="new    ">
						<g>
							<defs>
								<rect id="SVGID_39_" x="50.8" y="71.7" width="48.8" height="36.2"/>
							</defs>
							<clipPath id="SVGID_40_">
								<use xlink:href="#SVGID_39_"  overflow="visible"/>
							</clipPath>
							<g clip-path="url(#SVGID_40_)">
								<defs>
									<path id="SVGID_41_" d="M93.1,94.3c-16.4,16.7-43.2,17-59.9,0.6c-16.7-16.4-17-43.2-0.6-59.9C49,18.3,75.8,18,92.5,34.4
										C109.2,50.8,109.5,77.6,93.1,94.3"/>
								</defs>
								<clipPath id="SVGID_42_">
									<use xlink:href="#SVGID_41_"  overflow="visible"/>
								</clipPath>
								<g clip-path="url(#SVGID_42_)">
									<defs>
										<rect id="SVGID_43_" x="50.8" y="71.7" width="48.8" height="36.2"/>
									</defs>
									<clipPath id="SVGID_44_">
										<use xlink:href="#SVGID_43_"  overflow="visible"/>
									</clipPath>
									<rect x="12.6" y="14.4" clip-path="url(#SVGID_44_)" fill="#3F8CF4" width="100.5" height="100.5"/>
								</g>
							</g>
						</g>
					</g>
				</g>
			</g>
		</g>
		<g clip-path="url(#SVGID_2_)">
			<defs>
				<rect id="SVGID_45_" x="-94.1" y="-883.3" width="2152.5" height="8234.9"/>
			</defs>
			<clipPath id="SVGID_46_">
				<use xlink:href="#SVGID_45_"  overflow="visible"/>
			</clipPath>
			<g clip-path="url(#SVGID_46_)">
				<defs>
					<polyline id="SVGID_47_" points="24.6,45.8 43.7,65 21.1,87.6 11.3,71.4 4.6,51.8 11.2,45.8 18.7,43.9 24.6,45.8 					"/>
				</defs>
				<clipPath id="SVGID_48_">
					<use xlink:href="#SVGID_47_"  overflow="visible"/>
				</clipPath>
				<g clip-path="url(#SVGID_48_)">
					<defs>
						<rect id="SVGID_49_" x="2" y="8.6" width="104" height="99.3"/>
					</defs>
					<clipPath id="SVGID_50_">
						<use xlink:href="#SVGID_49_"  overflow="visible"/>
					</clipPath>
					<g clip-path="url(#SVGID_50_)" enable-background="new    ">
						<g>
							<defs>
								<rect id="SVGID_51_" x="16.2" y="43.3" width="28.4" height="45.7"/>
							</defs>
							<clipPath id="SVGID_52_">
								<use xlink:href="#SVGID_51_"  overflow="visible"/>
							</clipPath>
							<g clip-path="url(#SVGID_52_)">
								<defs>
									<path id="SVGID_53_" d="M93.1,94.3c-16.4,16.7-43.2,17-59.9,0.6c-16.7-16.4-17-43.2-0.6-59.9C49,18.3,75.8,18,92.5,34.4
										C109.2,50.8,109.5,77.6,93.1,94.3"/>
								</defs>
								<clipPath id="SVGID_54_">
									<use xlink:href="#SVGID_53_"  overflow="visible"/>
								</clipPath>
								<g clip-path="url(#SVGID_54_)">
									<defs>
										<rect id="SVGID_55_" x="3.6" y="43.3" width="41" height="45.7"/>
									</defs>
									<clipPath id="SVGID_56_">
										<use xlink:href="#SVGID_55_"  overflow="visible"/>
									</clipPath>
									<rect x="12.6" y="14.4" clip-path="url(#SVGID_56_)" fill="#20A362" width="100.5" height="100.5"/>
								</g>
							</g>
						</g>
					</g>
				</g>
			</g>
		</g>
		<g clip-path="url(#SVGID_2_)">
			<defs>
				<rect id="SVGID_57_" x="-94.1" y="-883.3" width="2152.5" height="8234.9"/>
			</defs>
			<clipPath id="SVGID_58_">
				<use xlink:href="#SVGID_57_"  overflow="visible"/>
			</clipPath>
			<g clip-path="url(#SVGID_58_)">
				<defs>
					<polyline id="SVGID_59_" points="54.8,8.8 37.6,13.6 20.5,8.8 3.3,13.6 3.3,65.5 20.5,60.8 37.6,65.5 54.8,60.8 71.9,65.5 
						71.9,13.6 54.8,8.8 					"/>
				</defs>
				<clipPath id="SVGID_60_">
					<use xlink:href="#SVGID_59_"  overflow="visible"/>
				</clipPath>
				<g clip-path="url(#SVGID_60_)">
					<defs>
						<rect id="SVGID_61_" x="2" y="8.6" width="104" height="99.3"/>
					</defs>
					<clipPath id="SVGID_62_">
						<use xlink:href="#SVGID_61_"  overflow="visible"/>
					</clipPath>
					<rect x="-4.6" y="1" clip-path="url(#SVGID_62_)" fill="#D5493D" width="84.4" height="72.4"/>
				</g>
			</g>
		</g>
		<g clip-path="url(#SVGID_2_)">
			<defs>
				<rect id="SVGID_63_" x="-94.1" y="-883.3" width="2152.5" height="8234.9"/>
			</defs>
			<clipPath id="SVGID_64_">
				<use xlink:href="#SVGID_63_"  overflow="visible"/>
			</clipPath>
			<g clip-path="url(#SVGID_64_)">
				<defs>
					<polyline id="SVGID_65_" points="54.8,8.8 37.6,13.6 20.5,8.8 3.3,13.6 3.3,65.5 20.5,60.8 37.6,65.5 54.8,60.8 71.9,65.5 
						71.9,13.6 54.8,8.8 					"/>
				</defs>
				<clipPath id="SVGID_66_">
					<use xlink:href="#SVGID_65_"  overflow="visible"/>
				</clipPath>
				<g clip-path="url(#SVGID_66_)">
					<defs>
						<rect id="SVGID_67_" x="2" y="8.6" width="104" height="99.3"/>
					</defs>
					<clipPath id="SVGID_68_">
						<use xlink:href="#SVGID_67_"  overflow="visible"/>
					</clipPath>
					<g clip-path="url(#SVGID_68_)" enable-background="new    ">
						<g>
							<defs>
								<rect id="SVGID_69_" x="2" y="8.6" width="70.9" height="58.3"/>
							</defs>
							<clipPath id="SVGID_70_">
								<use xlink:href="#SVGID_69_"  overflow="visible"/>
							</clipPath>
							<g clip-path="url(#SVGID_70_)">
								<defs>
									<polyline id="SVGID_71_" points="20.5,60.8 3.3,65.5 3.3,13.6 20.5,8.8 20.5,60.8 									"/>
								</defs>
								<clipPath id="SVGID_72_">
									<use xlink:href="#SVGID_71_"  overflow="visible"/>
								</clipPath>
								<g clip-path="url(#SVGID_72_)">
									<defs>
										<rect id="SVGID_73_" x="2" y="8.6" width="70.9" height="58.3"/>
									</defs>
									<clipPath id="SVGID_74_">
										<use xlink:href="#SVGID_73_"  overflow="visible"/>
									</clipPath>
									<rect x="-4.6" y="1" clip-path="url(#SVGID_74_)" fill="#CE332E" width="32.9" height="72.4"/>
								</g>
							</g>
							<g clip-path="url(#SVGID_70_)">
								<defs>
									<polyline id="SVGID_75_" points="54.8,60.8 37.6,65.5 37.6,13.6 54.8,8.8 54.8,60.8 									"/>
								</defs>
								<clipPath id="SVGID_76_">
									<use xlink:href="#SVGID_75_"  overflow="visible"/>
								</clipPath>
								<g clip-path="url(#SVGID_76_)">
									<defs>
										<rect id="SVGID_77_" x="2" y="8.6" width="70.9" height="58.3"/>
									</defs>
									<clipPath id="SVGID_78_">
										<use xlink:href="#SVGID_77_"  overflow="visible"/>
									</clipPath>
									<rect x="29.7" y="1" clip-path="url(#SVGID_78_)" fill="#CE332E" width="32.9" height="72.4"/>
								</g>
							</g>
							<g clip-path="url(#SVGID_70_)">
								<defs>
									<polyline id="SVGID_79_" points="20.5,60.8 37.6,65.5 37.6,13.6 20.5,8.8 20.5,60.8 									"/>
								</defs>
								<clipPath id="SVGID_80_">
									<use xlink:href="#SVGID_79_"  overflow="visible"/>
								</clipPath>
								<g clip-path="url(#SVGID_80_)">
									<defs>
										<rect id="SVGID_81_" x="2" y="8.6" width="70.9" height="58.3"/>
									</defs>
									<clipPath id="SVGID_82_">
										<use xlink:href="#SVGID_81_"  overflow="visible"/>
									</clipPath>
									<rect x="12.6" y="1" clip-path="url(#SVGID_82_)" fill="#D5493D" width="32.9" height="72.4"/>
								</g>
							</g>
							<g clip-path="url(#SVGID_70_)">
								<defs>
									<polyline id="SVGID_83_" points="54.8,60.8 71.9,65.5 71.9,13.6 54.8,8.8 54.8,60.8 									"/>
								</defs>
								<clipPath id="SVGID_84_">
									<use xlink:href="#SVGID_83_"  overflow="visible"/>
								</clipPath>
								<g clip-path="url(#SVGID_84_)">
									<defs>
										<rect id="SVGID_85_" x="2" y="8.6" width="70.9" height="58.3"/>
									</defs>
									<clipPath id="SVGID_86_">
										<use xlink:href="#SVGID_85_"  overflow="visible"/>
									</clipPath>
									<rect x="46.9" y="1" clip-path="url(#SVGID_86_)" fill="#D5493D" width="32.9" height="72.4"/>
								</g>
							</g>
						</g>
					</g>
				</g>
			</g>
		</g>
		<g clip-path="url(#SVGID_2_)">
			<defs>
				<rect id="SVGID_87_" x="-94.1" y="-883.3" width="2152.5" height="8234.9"/>
			</defs>
			<clipPath id="SVGID_88_">
				<use xlink:href="#SVGID_87_"  overflow="visible"/>
			</clipPath>
			<g clip-path="url(#SVGID_88_)">
				<defs>
					<polyline id="SVGID_89_" points="54.8,8.8 37.6,13.6 20.5,8.8 3.3,13.6 3.3,65.5 20.5,60.8 37.6,65.5 54.8,60.8 71.9,65.5 
						71.9,13.6 54.8,8.8 					"/>
				</defs>
				<clipPath id="SVGID_90_">
					<use xlink:href="#SVGID_89_"  overflow="visible"/>
				</clipPath>
				<g clip-path="url(#SVGID_90_)">
					<defs>
						<rect id="SVGID_91_" x="2" y="8.6" width="104" height="99.3"/>
					</defs>
					<clipPath id="SVGID_92_">
						<use xlink:href="#SVGID_91_"  overflow="visible"/>
					</clipPath>
					<g clip-path="url(#SVGID_92_)" enable-background="new    ">
						<g>
							<defs>
								<rect id="SVGID_93_" x="2" y="8.6" width="70.9" height="58.3"/>
							</defs>
							<clipPath id="SVGID_94_">
								<use xlink:href="#SVGID_93_"  overflow="visible"/>
							</clipPath>
							<g clip-path="url(#SVGID_94_)">
								<defs>
									<polyline id="SVGID_95_" points="20.5,8.8 20.5,60.8 37.6,65.5 37.6,13.6 20.5,8.8 									"/>
								</defs>
								<clipPath id="SVGID_96_">
									<use xlink:href="#SVGID_95_"  overflow="visible"/>
								</clipPath>
								<g clip-path="url(#SVGID_96_)">
									<defs>
										<rect id="SVGID_97_" x="2" y="8.6" width="70.9" height="58.3"/>
									</defs>
									<clipPath id="SVGID_98_">
										<use xlink:href="#SVGID_97_"  overflow="visible"/>
									</clipPath>
									<rect x="12.6" y="1" clip-path="url(#SVGID_98_)" fill="#B02620" width="32.9" height="72.4"/>
								</g>
							</g>
							<g clip-path="url(#SVGID_94_)">
								<defs>
									<polyline id="SVGID_99_" points="54.8,8.8 54.8,60.8 71.9,65.5 71.9,13.6 54.8,8.8 									"/>
								</defs>
								<clipPath id="SVGID_100_">
									<use xlink:href="#SVGID_99_"  overflow="visible"/>
								</clipPath>
								<g clip-path="url(#SVGID_100_)">
									<defs>
										<rect id="SVGID_101_" x="2" y="8.6" width="70.9" height="58.3"/>
									</defs>
									<clipPath id="SVGID_102_">
										<use xlink:href="#SVGID_101_"  overflow="visible"/>
									</clipPath>
									<rect x="46.9" y="1" clip-path="url(#SVGID_102_)" fill="#B02620" width="32.9" height="72.4"/>
								</g>
							</g>
							<g clip-path="url(#SVGID_94_)">
								<defs>
									<path id="SVGID_103_" d="M70,8.7L70,8.7c-0.4-0.7-1.3-0.9-1.9-0.6L42.9,22L33.1,5.9c-0.4-0.7-1.3-0.9-2-0.5
										c-0.7,0.4-0.9,1.3-0.5,2l9.7,16L1.3,44.9c-0.7,0.4-0.9,1.3-0.6,1.9c0.4,0.7,1.2,0.9,1.9,0.6l17.9-9.9L45,77.7
										c0.4,0.7,1.3,0.9,2,0.5h0c0.7-0.4,0.9-1.3,0.5-2L23.1,36.1l18.7-10.3l26.6,43.8c0.4,0.7,1.3,0.9,2,0.5v0
										c0.7-0.4,0.9-1.3,0.5-2L44.3,24.4l25.1-13.8C70.2,10.2,70.4,9.3,70,8.7"/>
								</defs>
								<clipPath id="SVGID_104_">
									<use xlink:href="#SVGID_103_"  overflow="visible"/>
								</clipPath>
								<g clip-path="url(#SVGID_104_)">
									<defs>
										<rect id="SVGID_105_" x="2" y="8.6" width="70.9" height="58.3"/>
									</defs>
									<clipPath id="SVGID_106_">
										<use xlink:href="#SVGID_105_"  overflow="visible"/>
									</clipPath>
									<rect x="-7.3" y="-2.7" clip-path="url(#SVGID_106_)" fill="#812A28" width="86.3" height="89"/>
								</g>
							</g>
						</g>
					</g>
				</g>
			</g>
		</g>
	</g>
</g>
</svg>
